<mxfile host="Electron" agent="Mozilla/5.0 (Windows NT 10.0; Win64; x64) AppleWebKit/537.36 (KHTML, like Gecko) draw.io/26.1.1 Chrome/132.0.6834.210 Electron/34.3.3 Safari/537.36" version="26.1.1">
  <diagram name="Page-1" id="9f46799a-70d6-7492-0946-bef42562c5a5">
    <mxGraphModel dx="1672" dy="1702" grid="1" gridSize="10" guides="1" tooltips="1" connect="1" arrows="1" fold="1" page="1" pageScale="1" pageWidth="1100" pageHeight="850" background="none" math="0" shadow="0">
      <root>
        <mxCell id="0" />
        <mxCell id="1" parent="0" />
        <mxCell id="MwzLFh-qSTPDTa6_5iHh-7" value="&lt;b&gt;PasswordGame&lt;/b&gt;" style="swimlane;fontStyle=0;childLayout=stackLayout;horizontal=1;startSize=26;fillColor=none;horizontalStack=0;resizeParent=1;resizeParentMax=0;resizeLast=0;collapsible=1;marginBottom=0;whiteSpace=wrap;html=1;swimlaneLine=1;" parent="1" vertex="1">
          <mxGeometry x="50" y="297" width="160" height="292" as="geometry" />
        </mxCell>
        <mxCell id="MwzLFh-qSTPDTa6_5iHh-33" value="- score : int" style="text;strokeColor=none;fillColor=none;align=left;verticalAlign=top;spacingLeft=4;spacingRight=4;overflow=hidden;rotatable=0;points=[[0,0.5],[1,0.5]];portConstraint=eastwest;whiteSpace=wrap;html=1;fontFamily=Helvetica;fontSize=12;fontColor=default;" parent="MwzLFh-qSTPDTa6_5iHh-7" vertex="1">
          <mxGeometry y="26" width="160" height="26" as="geometry" />
        </mxCell>
        <mxCell id="MwzLFh-qSTPDTa6_5iHh-49" value="- round : int" style="text;strokeColor=none;fillColor=none;align=left;verticalAlign=top;spacingLeft=4;spacingRight=4;overflow=hidden;rotatable=0;points=[[0,0.5],[1,0.5]];portConstraint=eastwest;whiteSpace=wrap;html=1;backgroundOutline=0;fontFamily=Helvetica;fontSize=12;fontColor=default;" parent="MwzLFh-qSTPDTa6_5iHh-7" vertex="1">
          <mxGeometry y="52" width="160" height="26" as="geometry" />
        </mxCell>
        <mxCell id="MwzLFh-qSTPDTa6_5iHh-69" value="- diffiiculty : DifficultyLevel" style="text;strokeColor=none;fillColor=none;align=left;verticalAlign=top;spacingLeft=4;spacingRight=4;overflow=hidden;rotatable=0;points=[[0,0.5],[1,0.5]];portConstraint=eastwest;whiteSpace=wrap;html=1;backgroundOutline=0;fontFamily=Helvetica;fontSize=12;fontColor=default;" parent="MwzLFh-qSTPDTa6_5iHh-7" vertex="1">
          <mxGeometry y="78" width="160" height="26" as="geometry" />
        </mxCell>
        <mxCell id="MwzLFh-qSTPDTa6_5iHh-68" value="timer: int" style="text;strokeColor=none;fillColor=none;align=left;verticalAlign=top;spacingLeft=4;spacingRight=4;overflow=hidden;rotatable=0;points=[[0,0.5],[1,0.5]];portConstraint=eastwest;whiteSpace=wrap;html=1;backgroundOutline=0;fontFamily=Helvetica;fontSize=12;fontColor=default;" parent="MwzLFh-qSTPDTa6_5iHh-7" vertex="1">
          <mxGeometry y="104" width="160" height="26" as="geometry" />
        </mxCell>
        <mxCell id="MwzLFh-qSTPDTa6_5iHh-65" value="- feedbackList : List&amp;lt;String&amp;gt;" style="text;strokeColor=none;fillColor=none;align=left;verticalAlign=top;spacingLeft=4;spacingRight=4;overflow=hidden;rotatable=0;points=[[0,0.5],[1,0.5]];portConstraint=eastwest;whiteSpace=wrap;html=1;backgroundOutline=0;fontFamily=Helvetica;fontSize=12;fontColor=default;" parent="MwzLFh-qSTPDTa6_5iHh-7" vertex="1">
          <mxGeometry y="130" width="160" height="26" as="geometry" />
        </mxCell>
        <mxCell id="MwzLFh-qSTPDTa6_5iHh-64" value="" style="line;strokeWidth=1;fillColor=none;align=left;verticalAlign=middle;spacingTop=-1;spacingLeft=3;spacingRight=3;rotatable=0;labelPosition=right;points=[];portConstraint=eastwest;strokeColor=inherit;" parent="MwzLFh-qSTPDTa6_5iHh-7" vertex="1">
          <mxGeometry y="156" width="160" height="8" as="geometry" />
        </mxCell>
        <mxCell id="MwzLFh-qSTPDTa6_5iHh-8" value="+ startGame()" style="text;strokeColor=none;fillColor=none;align=left;verticalAlign=top;spacingLeft=4;spacingRight=4;overflow=hidden;rotatable=0;points=[[0,0.5],[1,0.5]];portConstraint=eastwest;whiteSpace=wrap;html=1;" parent="MwzLFh-qSTPDTa6_5iHh-7" vertex="1">
          <mxGeometry y="164" width="160" height="24" as="geometry" />
        </mxCell>
        <mxCell id="MwzLFh-qSTPDTa6_5iHh-48" value="+updateScore()" style="text;strokeColor=none;fillColor=none;align=left;verticalAlign=top;spacingLeft=4;spacingRight=4;overflow=hidden;rotatable=0;points=[[0,0.5],[1,0.5]];portConstraint=eastwest;whiteSpace=wrap;html=1;" parent="MwzLFh-qSTPDTa6_5iHh-7" vertex="1">
          <mxGeometry y="188" width="160" height="26" as="geometry" />
        </mxCell>
        <mxCell id="MwzLFh-qSTPDTa6_5iHh-47" value="+ showFeedback()" style="text;strokeColor=none;fillColor=none;align=left;verticalAlign=top;spacingLeft=4;spacingRight=4;overflow=hidden;rotatable=0;points=[[0,0.5],[1,0.5]];portConstraint=eastwest;whiteSpace=wrap;html=1;" parent="MwzLFh-qSTPDTa6_5iHh-7" vertex="1">
          <mxGeometry y="214" width="160" height="26" as="geometry" />
        </mxCell>
        <mxCell id="MwzLFh-qSTPDTa6_5iHh-46" value="+ showPasswordPrompt()" style="text;strokeColor=none;fillColor=none;align=left;verticalAlign=top;spacingLeft=4;spacingRight=4;overflow=hidden;rotatable=0;points=[[0,0.5],[1,0.5]];portConstraint=eastwest;whiteSpace=wrap;html=1;" parent="MwzLFh-qSTPDTa6_5iHh-7" vertex="1">
          <mxGeometry y="240" width="160" height="26" as="geometry" />
        </mxCell>
        <mxCell id="MwzLFh-qSTPDTa6_5iHh-45" value="+ endGame()" style="text;strokeColor=none;fillColor=none;align=left;verticalAlign=top;spacingLeft=4;spacingRight=4;overflow=hidden;rotatable=0;points=[[0,0.5],[1,0.5]];portConstraint=eastwest;whiteSpace=wrap;html=1;" parent="MwzLFh-qSTPDTa6_5iHh-7" vertex="1">
          <mxGeometry y="266" width="160" height="26" as="geometry" />
        </mxCell>
        <mxCell id="MwzLFh-qSTPDTa6_5iHh-11" value="&lt;b&gt;PasswordLab&lt;/b&gt;" style="swimlane;fontStyle=0;childLayout=stackLayout;horizontal=1;startSize=26;fillColor=none;horizontalStack=0;resizeParent=1;resizeParentMax=0;resizeLast=0;collapsible=1;marginBottom=0;whiteSpace=wrap;html=1;" parent="1" vertex="1">
          <mxGeometry x="740" y="337" width="140" height="156" as="geometry" />
        </mxCell>
        <mxCell id="MwzLFh-qSTPDTa6_5iHh-34" value="-&amp;nbsp;testPasswordResult" style="text;strokeColor=default;fillColor=none;align=left;verticalAlign=top;spacingLeft=4;spacingRight=4;overflow=hidden;rotatable=0;points=[[0,0.5],[1,0.5]];portConstraint=eastwest;whiteSpace=wrap;html=1;" parent="MwzLFh-qSTPDTa6_5iHh-11" vertex="1">
          <mxGeometry y="26" width="140" height="26" as="geometry" />
        </mxCell>
        <mxCell id="MwzLFh-qSTPDTa6_5iHh-12" value="+ testPassword()" style="text;strokeColor=none;fillColor=none;align=left;verticalAlign=top;spacingLeft=4;spacingRight=4;overflow=hidden;rotatable=0;points=[[0,0.5],[1,0.5]];portConstraint=eastwest;whiteSpace=wrap;html=1;" parent="MwzLFh-qSTPDTa6_5iHh-11" vertex="1">
          <mxGeometry y="52" width="140" height="26" as="geometry" />
        </mxCell>
        <mxCell id="MwzLFh-qSTPDTa6_5iHh-35" value="+ showTestResults()" style="text;strokeColor=none;fillColor=none;align=left;verticalAlign=top;spacingLeft=4;spacingRight=4;overflow=hidden;rotatable=0;points=[[0,0.5],[1,0.5]];portConstraint=eastwest;whiteSpace=wrap;html=1;" parent="MwzLFh-qSTPDTa6_5iHh-11" vertex="1">
          <mxGeometry y="78" width="140" height="26" as="geometry" />
        </mxCell>
        <mxCell id="MwzLFh-qSTPDTa6_5iHh-71" value="+ loadHints()" style="text;strokeColor=none;fillColor=none;align=left;verticalAlign=top;spacingLeft=4;spacingRight=4;overflow=hidden;rotatable=0;points=[[0,0.5],[1,0.5]];portConstraint=eastwest;whiteSpace=wrap;html=1;" parent="MwzLFh-qSTPDTa6_5iHh-11" vertex="1">
          <mxGeometry y="104" width="140" height="26" as="geometry" />
        </mxCell>
        <mxCell id="MwzLFh-qSTPDTa6_5iHh-70" value="+ displayHints()" style="text;strokeColor=none;fillColor=none;align=left;verticalAlign=top;spacingLeft=4;spacingRight=4;overflow=hidden;rotatable=0;points=[[0,0.5],[1,0.5]];portConstraint=eastwest;whiteSpace=wrap;html=1;" parent="MwzLFh-qSTPDTa6_5iHh-11" vertex="1">
          <mxGeometry y="130" width="140" height="26" as="geometry" />
        </mxCell>
        <mxCell id="MwzLFh-qSTPDTa6_5iHh-16" value="" style="endArrow=none;dashed=1;html=1;rounded=0;exitX=0.116;exitY=-0.013;exitDx=0;exitDy=0;strokeWidth=1;startArrow=block;startFill=1;entryX=1.008;entryY=0.803;entryDx=0;entryDy=0;entryPerimeter=0;exitPerimeter=0;" parent="1" source="MwzLFh-qSTPDTa6_5iHh-11" target="MwzLFh-qSTPDTa6_5iHh-30" edge="1">
          <mxGeometry width="50" height="50" relative="1" as="geometry">
            <mxPoint x="486" y="219" as="sourcePoint" />
            <mxPoint x="546" y="85" as="targetPoint" />
            <Array as="points">
              <mxPoint x="756" y="158" />
            </Array>
          </mxGeometry>
        </mxCell>
        <mxCell id="MwzLFh-qSTPDTa6_5iHh-18" value="&lt;b&gt;&amp;lt;&amp;lt;interface&amp;gt;&amp;gt;&lt;br&gt;PasswordChecker&lt;/b&gt;" style="swimlane;fontStyle=0;childLayout=stackLayout;horizontal=1;startSize=26;fillColor=none;horizontalStack=0;resizeParent=1;resizeParentMax=0;resizeLast=0;collapsible=1;marginBottom=0;whiteSpace=wrap;html=1;labelPadding=8;" parent="1" vertex="1">
          <mxGeometry x="376" y="272" width="140" height="78" as="geometry" />
        </mxCell>
        <mxCell id="MwzLFh-qSTPDTa6_5iHh-19" value="+ checkStrength()" style="text;strokeColor=none;fillColor=none;align=left;verticalAlign=top;spacingLeft=4;spacingRight=4;overflow=hidden;rotatable=0;points=[[0,0.5],[1,0.5]];portConstraint=eastwest;whiteSpace=wrap;html=1;" parent="MwzLFh-qSTPDTa6_5iHh-18" vertex="1">
          <mxGeometry y="26" width="140" height="26" as="geometry" />
        </mxCell>
        <mxCell id="MwzLFh-qSTPDTa6_5iHh-37" value="+ giveFeedback()" style="text;strokeColor=none;fillColor=none;align=left;verticalAlign=top;spacingLeft=4;spacingRight=4;overflow=hidden;rotatable=0;points=[[0,0.5],[1,0.5]];portConstraint=eastwest;whiteSpace=wrap;html=1;" parent="MwzLFh-qSTPDTa6_5iHh-18" vertex="1">
          <mxGeometry y="52" width="140" height="26" as="geometry" />
        </mxCell>
        <mxCell id="MwzLFh-qSTPDTa6_5iHh-23" value="" style="endArrow=none;html=1;rounded=0;exitX=1;exitY=0.25;exitDx=0;exitDy=0;startArrow=block;startFill=1;strokeWidth=1;entryX=0;entryY=0.5;entryDx=0;entryDy=0;" parent="1" target="MwzLFh-qSTPDTa6_5iHh-35" edge="1">
          <mxGeometry width="50" height="50" relative="1" as="geometry">
            <mxPoint x="516" y="281.5" as="sourcePoint" />
            <mxPoint x="606" y="281.4960000000001" as="targetPoint" />
            <Array as="points" />
          </mxGeometry>
        </mxCell>
        <mxCell id="MwzLFh-qSTPDTa6_5iHh-24" value="uses" style="text;html=1;align=center;verticalAlign=middle;resizable=0;points=[];autosize=1;strokeColor=none;fillColor=none;" parent="1" vertex="1">
          <mxGeometry x="296" y="278" width="50" height="30" as="geometry" />
        </mxCell>
        <mxCell id="MwzLFh-qSTPDTa6_5iHh-25" value="uses" style="text;html=1;align=center;verticalAlign=middle;resizable=0;points=[];autosize=1;strokeColor=none;fillColor=none;" parent="1" vertex="1">
          <mxGeometry x="536" y="276" width="50" height="30" as="geometry" />
        </mxCell>
        <mxCell id="MwzLFh-qSTPDTa6_5iHh-27" value="App (main)" style="swimlane;fontStyle=1;align=center;verticalAlign=top;childLayout=stackLayout;horizontal=1;startSize=26;horizontalStack=0;resizeParent=1;resizeParentMax=0;resizeLast=0;collapsible=1;marginBottom=0;whiteSpace=wrap;html=1;" parent="1" vertex="1">
          <mxGeometry x="405" y="77" width="230" height="138" as="geometry" />
        </mxCell>
        <mxCell id="MwzLFh-qSTPDTa6_5iHh-28" value="- currentScreen : ScreenType (enum)" style="text;strokeColor=none;fillColor=none;align=left;verticalAlign=top;spacingLeft=4;spacingRight=4;overflow=hidden;rotatable=0;points=[[0,0.5],[1,0.5]];portConstraint=eastwest;whiteSpace=wrap;html=1;" parent="MwzLFh-qSTPDTa6_5iHh-27" vertex="1">
          <mxGeometry y="26" width="230" height="26" as="geometry" />
        </mxCell>
        <mxCell id="MwzLFh-qSTPDTa6_5iHh-29" value="" style="line;strokeWidth=1;fillColor=none;align=left;verticalAlign=middle;spacingTop=-1;spacingLeft=3;spacingRight=3;rotatable=0;labelPosition=right;points=[];portConstraint=eastwest;strokeColor=inherit;" parent="MwzLFh-qSTPDTa6_5iHh-27" vertex="1">
          <mxGeometry y="52" width="230" height="8" as="geometry" />
        </mxCell>
        <mxCell id="MwzLFh-qSTPDTa6_5iHh-30" value="+ start(Stage)&lt;div&gt;&lt;br&gt;&lt;/div&gt;" style="text;strokeColor=none;fillColor=none;align=left;verticalAlign=top;spacingLeft=4;spacingRight=4;overflow=hidden;rotatable=0;points=[[0,0.5],[1,0.5]];portConstraint=eastwest;whiteSpace=wrap;html=1;" parent="MwzLFh-qSTPDTa6_5iHh-27" vertex="1">
          <mxGeometry y="60" width="230" height="26" as="geometry" />
        </mxCell>
        <mxCell id="MwzLFh-qSTPDTa6_5iHh-32" value="+ showGame()" style="text;strokeColor=none;fillColor=none;align=left;verticalAlign=top;spacingLeft=4;spacingRight=4;overflow=hidden;rotatable=0;points=[[0,0.5],[1,0.5]];portConstraint=eastwest;whiteSpace=wrap;html=1;" parent="MwzLFh-qSTPDTa6_5iHh-27" vertex="1">
          <mxGeometry y="86" width="230" height="26" as="geometry" />
        </mxCell>
        <mxCell id="MwzLFh-qSTPDTa6_5iHh-31" value="+ showLab()" style="text;strokeColor=none;fillColor=none;align=left;verticalAlign=top;spacingLeft=4;spacingRight=4;overflow=hidden;rotatable=0;points=[[0,0.5],[1,0.5]];portConstraint=eastwest;whiteSpace=wrap;html=1;" parent="MwzLFh-qSTPDTa6_5iHh-27" vertex="1">
          <mxGeometry y="112" width="230" height="26" as="geometry" />
        </mxCell>
        <mxCell id="MwzLFh-qSTPDTa6_5iHh-38" value="&lt;b&gt;PasswordValidator&lt;/b&gt;" style="swimlane;fontStyle=0;childLayout=stackLayout;horizontal=1;startSize=26;fillColor=none;horizontalStack=0;resizeParent=1;resizeParentMax=0;resizeLast=0;collapsible=1;marginBottom=0;whiteSpace=wrap;html=1;" parent="1" vertex="1">
          <mxGeometry x="383" y="979" width="167" height="78" as="geometry" />
        </mxCell>
        <mxCell id="MwzLFh-qSTPDTa6_5iHh-39" value="+ checkStrength()" style="text;strokeColor=none;fillColor=none;align=left;verticalAlign=top;spacingLeft=4;spacingRight=4;overflow=hidden;rotatable=0;points=[[0,0.5],[1,0.5]];portConstraint=eastwest;whiteSpace=wrap;html=1;" parent="MwzLFh-qSTPDTa6_5iHh-38" vertex="1">
          <mxGeometry y="26" width="167" height="26" as="geometry" />
        </mxCell>
        <mxCell id="MwzLFh-qSTPDTa6_5iHh-40" value="+ giveFeedback()" style="text;strokeColor=none;fillColor=none;align=left;verticalAlign=top;spacingLeft=4;spacingRight=4;overflow=hidden;rotatable=0;points=[[0,0.5],[1,0.5]];portConstraint=eastwest;whiteSpace=wrap;html=1;" parent="MwzLFh-qSTPDTa6_5iHh-38" vertex="1">
          <mxGeometry y="52" width="167" height="26" as="geometry" />
        </mxCell>
        <mxCell id="MwzLFh-qSTPDTa6_5iHh-41" value="" style="endArrow=classic;html=1;rounded=0;dashed=1;" parent="1" source="MwzLFh-qSTPDTa6_5iHh-18" edge="1">
          <mxGeometry width="50" height="50" relative="1" as="geometry">
            <mxPoint x="766" y="335" as="sourcePoint" />
            <mxPoint x="446" y="417" as="targetPoint" />
          </mxGeometry>
        </mxCell>
        <mxCell id="6YJ5N-ME_N0Fh1LEVRaI-7" value="i&lt;span style=&quot;background-color: light-dark(#ffffff, var(--ge-dark-color, #121212)); color: light-dark(rgb(0, 0, 0), rgb(255, 255, 255));&quot;&gt;mplements&lt;/span&gt;" style="edgeLabel;html=1;align=center;verticalAlign=middle;resizable=0;points=[];" parent="MwzLFh-qSTPDTa6_5iHh-41" vertex="1" connectable="0">
          <mxGeometry x="-0.3433" y="1" relative="1" as="geometry">
            <mxPoint x="34" y="5" as="offset" />
          </mxGeometry>
        </mxCell>
        <mxCell id="MwzLFh-qSTPDTa6_5iHh-51" value="" style="endArrow=classic;html=1;rounded=0;exitX=1;exitY=0.5;exitDx=0;exitDy=0;entryX=-0.004;entryY=0.141;entryDx=0;entryDy=0;entryPerimeter=0;" parent="1" source="MwzLFh-qSTPDTa6_5iHh-68" target="MwzLFh-qSTPDTa6_5iHh-18" edge="1">
          <mxGeometry width="50" height="50" relative="1" as="geometry">
            <mxPoint x="256" y="535" as="sourcePoint" />
            <mxPoint x="306" y="485" as="targetPoint" />
            <Array as="points" />
          </mxGeometry>
        </mxCell>
        <mxCell id="LDX4w7hDw32Ap1Z7UwCJ-1" value="Hint" style="swimlane;fontStyle=1;align=center;verticalAlign=top;childLayout=stackLayout;horizontal=1;startSize=26;horizontalStack=0;resizeParent=1;resizeParentMax=0;resizeLast=0;collapsible=1;marginBottom=0;whiteSpace=wrap;html=1;" parent="1" vertex="1">
          <mxGeometry x="376" y="1109" width="160" height="138" as="geometry" />
        </mxCell>
        <mxCell id="LDX4w7hDw32Ap1Z7UwCJ-2" value="- message : string" style="text;strokeColor=none;fillColor=none;align=left;verticalAlign=top;spacingLeft=4;spacingRight=4;overflow=hidden;rotatable=0;points=[[0,0.5],[1,0.5]];portConstraint=eastwest;whiteSpace=wrap;html=1;" parent="LDX4w7hDw32Ap1Z7UwCJ-1" vertex="1">
          <mxGeometry y="26" width="160" height="26" as="geometry" />
        </mxCell>
        <mxCell id="LDX4w7hDw32Ap1Z7UwCJ-5" value="- category : string" style="text;strokeColor=none;fillColor=none;align=left;verticalAlign=top;spacingLeft=4;spacingRight=4;overflow=hidden;rotatable=0;points=[[0,0.5],[1,0.5]];portConstraint=eastwest;whiteSpace=wrap;html=1;" parent="LDX4w7hDw32Ap1Z7UwCJ-1" vertex="1">
          <mxGeometry y="52" width="160" height="26" as="geometry" />
        </mxCell>
        <mxCell id="LDX4w7hDw32Ap1Z7UwCJ-3" value="" style="line;strokeWidth=1;fillColor=none;align=left;verticalAlign=middle;spacingTop=-1;spacingLeft=3;spacingRight=3;rotatable=0;labelPosition=right;points=[];portConstraint=eastwest;strokeColor=inherit;" parent="LDX4w7hDw32Ap1Z7UwCJ-1" vertex="1">
          <mxGeometry y="78" width="160" height="8" as="geometry" />
        </mxCell>
        <mxCell id="LDX4w7hDw32Ap1Z7UwCJ-4" value="+ getHint()" style="text;strokeColor=none;fillColor=none;align=left;verticalAlign=top;spacingLeft=4;spacingRight=4;overflow=hidden;rotatable=0;points=[[0,0.5],[1,0.5]];portConstraint=eastwest;whiteSpace=wrap;html=1;" parent="LDX4w7hDw32Ap1Z7UwCJ-1" vertex="1">
          <mxGeometry y="86" width="160" height="26" as="geometry" />
        </mxCell>
        <mxCell id="LDX4w7hDw32Ap1Z7UwCJ-6" value="+ getCategory()" style="text;strokeColor=none;fillColor=none;align=left;verticalAlign=top;spacingLeft=4;spacingRight=4;overflow=hidden;rotatable=0;points=[[0,0.5],[1,0.5]];portConstraint=eastwest;whiteSpace=wrap;html=1;" parent="LDX4w7hDw32Ap1Z7UwCJ-1" vertex="1">
          <mxGeometry y="112" width="160" height="26" as="geometry" />
        </mxCell>
        <mxCell id="LDX4w7hDw32Ap1Z7UwCJ-7" value="HintManager" style="swimlane;fontStyle=1;align=center;verticalAlign=top;childLayout=stackLayout;horizontal=1;startSize=26;horizontalStack=0;resizeParent=1;resizeParentMax=0;resizeLast=0;collapsible=1;marginBottom=0;whiteSpace=wrap;html=1;" parent="1" vertex="1">
          <mxGeometry x="376" y="1347" width="160" height="190" as="geometry" />
        </mxCell>
        <mxCell id="LDX4w7hDw32Ap1Z7UwCJ-8" value="- dynamicHints : List&amp;lt;Hint&amp;gt;" style="text;strokeColor=none;fillColor=none;align=left;verticalAlign=top;spacingLeft=4;spacingRight=4;overflow=hidden;rotatable=0;points=[[0,0.5],[1,0.5]];portConstraint=eastwest;whiteSpace=wrap;html=1;" parent="LDX4w7hDw32Ap1Z7UwCJ-7" vertex="1">
          <mxGeometry y="26" width="160" height="26" as="geometry" />
        </mxCell>
        <mxCell id="LDX4w7hDw32Ap1Z7UwCJ-11" value="- genericHints : List&amp;lt;Hint&amp;gt;" style="text;strokeColor=none;fillColor=none;align=left;verticalAlign=top;spacingLeft=4;spacingRight=4;overflow=hidden;rotatable=0;points=[[0,0.5],[1,0.5]];portConstraint=eastwest;whiteSpace=wrap;html=1;" parent="LDX4w7hDw32Ap1Z7UwCJ-7" vertex="1">
          <mxGeometry y="52" width="160" height="26" as="geometry" />
        </mxCell>
        <mxCell id="LDX4w7hDw32Ap1Z7UwCJ-9" value="" style="line;strokeWidth=1;fillColor=none;align=left;verticalAlign=middle;spacingTop=-1;spacingLeft=3;spacingRight=3;rotatable=0;labelPosition=right;points=[];portConstraint=eastwest;strokeColor=inherit;" parent="LDX4w7hDw32Ap1Z7UwCJ-7" vertex="1">
          <mxGeometry y="78" width="160" height="8" as="geometry" />
        </mxCell>
        <mxCell id="LDX4w7hDw32Ap1Z7UwCJ-10" value="+ addDynamicHint(Hint)" style="text;strokeColor=none;fillColor=none;align=left;verticalAlign=top;spacingLeft=4;spacingRight=4;overflow=hidden;rotatable=0;points=[[0,0.5],[1,0.5]];portConstraint=eastwest;whiteSpace=wrap;html=1;" parent="LDX4w7hDw32Ap1Z7UwCJ-7" vertex="1">
          <mxGeometry y="86" width="160" height="26" as="geometry" />
        </mxCell>
        <mxCell id="LDX4w7hDw32Ap1Z7UwCJ-14" value="+ getGenericHints()" style="text;strokeColor=none;fillColor=none;align=left;verticalAlign=top;spacingLeft=4;spacingRight=4;overflow=hidden;rotatable=0;points=[[0,0.5],[1,0.5]];portConstraint=eastwest;whiteSpace=wrap;html=1;" parent="LDX4w7hDw32Ap1Z7UwCJ-7" vertex="1">
          <mxGeometry y="112" width="160" height="26" as="geometry" />
        </mxCell>
        <mxCell id="LDX4w7hDw32Ap1Z7UwCJ-13" value="+ getDynamicHints()" style="text;strokeColor=none;fillColor=none;align=left;verticalAlign=top;spacingLeft=4;spacingRight=4;overflow=hidden;rotatable=0;points=[[0,0.5],[1,0.5]];portConstraint=eastwest;whiteSpace=wrap;html=1;" parent="LDX4w7hDw32Ap1Z7UwCJ-7" vertex="1">
          <mxGeometry y="138" width="160" height="26" as="geometry" />
        </mxCell>
        <mxCell id="LDX4w7hDw32Ap1Z7UwCJ-12" value="+ clearDynamicHints" style="text;strokeColor=none;fillColor=none;align=left;verticalAlign=top;spacingLeft=4;spacingRight=4;overflow=hidden;rotatable=0;points=[[0,0.5],[1,0.5]];portConstraint=eastwest;whiteSpace=wrap;html=1;" parent="LDX4w7hDw32Ap1Z7UwCJ-7" vertex="1">
          <mxGeometry y="164" width="160" height="26" as="geometry" />
        </mxCell>
        <mxCell id="LDX4w7hDw32Ap1Z7UwCJ-15" value="" style="endArrow=none;dashed=1;html=1;rounded=0;startArrow=block;startFill=1;" parent="1" target="MwzLFh-qSTPDTa6_5iHh-40" edge="1">
          <mxGeometry width="50" height="50" relative="1" as="geometry">
            <mxPoint x="467" y="1107" as="sourcePoint" />
            <mxPoint x="455.3499999999999" y="1063.58" as="targetPoint" />
          </mxGeometry>
        </mxCell>
        <mxCell id="LDX4w7hDw32Ap1Z7UwCJ-18" value="" style="endArrow=classic;html=1;rounded=0;startArrow=diamond;startFill=0;entryX=0.475;entryY=0.904;entryDx=0;entryDy=0;entryPerimeter=0;" parent="1" source="LDX4w7hDw32Ap1Z7UwCJ-7" target="LDX4w7hDw32Ap1Z7UwCJ-6" edge="1">
          <mxGeometry width="50" height="50" relative="1" as="geometry">
            <mxPoint x="564" y="1096" as="sourcePoint" />
            <mxPoint x="614" y="1046" as="targetPoint" />
          </mxGeometry>
        </mxCell>
        <mxCell id="LDX4w7hDw32Ap1Z7UwCJ-20" value="" style="endArrow=none;dashed=1;html=1;rounded=0;exitX=1;exitY=0.084;exitDx=0;exitDy=0;exitPerimeter=0;startArrow=block;startFill=1;entryX=0.786;entryY=1.136;entryDx=0;entryDy=0;entryPerimeter=0;" parent="1" source="LDX4w7hDw32Ap1Z7UwCJ-7" target="MwzLFh-qSTPDTa6_5iHh-70" edge="1">
          <mxGeometry width="50" height="50" relative="1" as="geometry">
            <mxPoint x="674" y="756" as="sourcePoint" />
            <mxPoint x="674" y="586" as="targetPoint" />
            <Array as="points">
              <mxPoint x="900" y="767" />
            </Array>
          </mxGeometry>
        </mxCell>
        <mxCell id="LDX4w7hDw32Ap1Z7UwCJ-21" value="uses" style="text;html=1;align=center;verticalAlign=middle;resizable=0;points=[];autosize=1;strokeColor=none;fillColor=none;" parent="1" vertex="1">
          <mxGeometry x="536" y="1247" width="50" height="30" as="geometry" />
        </mxCell>
        <mxCell id="LDX4w7hDw32Ap1Z7UwCJ-22" value="" style="endArrow=none;html=1;rounded=0;exitX=-0.006;exitY=0.063;exitDx=0;exitDy=0;exitPerimeter=0;startArrow=block;startFill=1;" parent="1" source="LDX4w7hDw32Ap1Z7UwCJ-7" target="MwzLFh-qSTPDTa6_5iHh-45" edge="1">
          <mxGeometry width="50" height="50" relative="1" as="geometry">
            <mxPoint x="176" y="786" as="sourcePoint" />
            <mxPoint x="194" y="501" as="targetPoint" />
            <Array as="points">
              <mxPoint x="130" y="777" />
            </Array>
          </mxGeometry>
        </mxCell>
        <mxCell id="LDX4w7hDw32Ap1Z7UwCJ-23" value="contains" style="text;html=1;align=center;verticalAlign=middle;resizable=0;points=[];autosize=1;strokeColor=none;fillColor=none;" parent="1" vertex="1">
          <mxGeometry x="446" y="1297" width="70" height="30" as="geometry" />
        </mxCell>
        <mxCell id="6YJ5N-ME_N0Fh1LEVRaI-1" value="&lt;b&gt;&amp;lt;&amp;lt;abstract&amp;gt;&amp;gt;&lt;br&gt;PasswordComponent&lt;/b&gt;" style="swimlane;fontStyle=0;childLayout=stackLayout;horizontal=1;startSize=26;fillColor=none;horizontalStack=0;resizeParent=1;resizeParentMax=0;resizeLast=0;collapsible=1;marginBottom=0;whiteSpace=wrap;html=1;" parent="1" vertex="1">
          <mxGeometry x="303" y="417" width="300" height="110" as="geometry" />
        </mxCell>
        <mxCell id="6YJ5N-ME_N0Fh1LEVRaI-2" value="+ checkStrength(&lt;span class=&quot;hljs-keyword&quot;&gt;password&lt;/span&gt;: String) : &lt;span class=&quot;hljs-type&quot;&gt;int&lt;/span&gt;" style="text;strokeColor=none;fillColor=none;align=left;verticalAlign=top;spacingLeft=4;spacingRight=4;overflow=hidden;rotatable=0;points=[[0,0.5],[1,0.5]];portConstraint=eastwest;whiteSpace=wrap;html=1;" parent="6YJ5N-ME_N0Fh1LEVRaI-1" vertex="1">
          <mxGeometry y="26" width="300" height="24" as="geometry" />
        </mxCell>
        <mxCell id="6YJ5N-ME_N0Fh1LEVRaI-3" value="+ giveFeedback(&lt;span class=&quot;hljs-keyword&quot;&gt;password&lt;/span&gt;: String) : String" style="text;strokeColor=none;fillColor=none;align=left;verticalAlign=top;spacingLeft=4;spacingRight=4;overflow=hidden;rotatable=0;points=[[0,0.5],[1,0.5]];portConstraint=eastwest;whiteSpace=wrap;html=1;" parent="6YJ5N-ME_N0Fh1LEVRaI-1" vertex="1">
          <mxGeometry y="50" width="300" height="26" as="geometry" />
        </mxCell>
        <mxCell id="6YJ5N-ME_N0Fh1LEVRaI-5" value="# containsCommonWord&lt;br&gt;(&lt;span class=&quot;hljs-keyword&quot;&gt;password&lt;/span&gt;: String, commonWords: String[]) : &lt;span class=&quot;hljs-type&quot;&gt;boolean&lt;/span&gt;" style="text;strokeColor=none;fillColor=none;align=left;verticalAlign=top;spacingLeft=4;spacingRight=4;overflow=hidden;rotatable=0;points=[[0,0.5],[1,0.5]];portConstraint=eastwest;whiteSpace=wrap;html=1;" parent="6YJ5N-ME_N0Fh1LEVRaI-1" vertex="1">
          <mxGeometry y="76" width="300" height="34" as="geometry" />
        </mxCell>
        <mxCell id="6YJ5N-ME_N0Fh1LEVRaI-6" value="" style="endArrow=classic;html=1;rounded=0;exitX=0;exitY=0.108;exitDx=0;exitDy=0;exitPerimeter=0;" parent="1" target="MwzLFh-qSTPDTa6_5iHh-38" edge="1" source="6YJ5N-ME_N0Fh1LEVRaI-1">
          <mxGeometry width="50" height="50" relative="1" as="geometry">
            <mxPoint x="308" y="429" as="sourcePoint" />
            <mxPoint x="513" y="690" as="targetPoint" />
            <Array as="points">
              <mxPoint x="240" y="427" />
              <mxPoint x="240" y="847" />
            </Array>
          </mxGeometry>
        </mxCell>
        <mxCell id="6YJ5N-ME_N0Fh1LEVRaI-8" value="inherits" style="text;html=1;align=center;verticalAlign=middle;resizable=0;points=[];autosize=1;strokeColor=none;fillColor=none;" parent="1" vertex="1">
          <mxGeometry x="236" y="887" width="60" height="30" as="geometry" />
        </mxCell>
        <mxCell id="mxx-9HUhmIcKTZJnWZQF-1" value="GameSetupScreen" style="swimlane;fontStyle=1;align=center;verticalAlign=top;childLayout=stackLayout;horizontal=1;startSize=26;horizontalStack=0;resizeParent=1;resizeParentMax=0;resizeLast=0;collapsible=1;marginBottom=0;whiteSpace=wrap;html=1;" parent="1" vertex="1">
          <mxGeometry y="77" width="260" height="138" as="geometry" />
        </mxCell>
        <mxCell id="mxx-9HUhmIcKTZJnWZQF-2" value="- mainMenuStage: Stage" style="text;strokeColor=none;fillColor=none;align=left;verticalAlign=top;spacingLeft=4;spacingRight=4;overflow=hidden;rotatable=0;points=[[0,0.5],[1,0.5]];portConstraint=eastwest;whiteSpace=wrap;html=1;" parent="mxx-9HUhmIcKTZJnWZQF-1" vertex="1">
          <mxGeometry y="26" width="260" height="26" as="geometry" />
        </mxCell>
        <mxCell id="mxx-9HUhmIcKTZJnWZQF-18" value="- setupStage: Stage" style="text;strokeColor=none;fillColor=none;align=left;verticalAlign=top;spacingLeft=4;spacingRight=4;overflow=hidden;rotatable=0;points=[[0,0.5],[1,0.5]];portConstraint=eastwest;whiteSpace=wrap;html=1;" parent="mxx-9HUhmIcKTZJnWZQF-1" vertex="1">
          <mxGeometry y="52" width="260" height="26" as="geometry" />
        </mxCell>
        <mxCell id="mxx-9HUhmIcKTZJnWZQF-3" value="" style="line;strokeWidth=1;fillColor=none;align=left;verticalAlign=middle;spacingTop=-1;spacingLeft=3;spacingRight=3;rotatable=0;labelPosition=right;points=[];portConstraint=eastwest;strokeColor=inherit;" parent="mxx-9HUhmIcKTZJnWZQF-1" vertex="1">
          <mxGeometry y="78" width="260" height="8" as="geometry" />
        </mxCell>
        <mxCell id="mxx-9HUhmIcKTZJnWZQF-6" value="+ GameSetupScreen(mainMenuStage: Stage)" style="text;strokeColor=none;fillColor=none;align=left;verticalAlign=top;spacingLeft=4;spacingRight=4;overflow=hidden;rotatable=0;points=[[0,0.5],[1,0.5]];portConstraint=eastwest;whiteSpace=wrap;html=1;" parent="mxx-9HUhmIcKTZJnWZQF-1" vertex="1">
          <mxGeometry y="86" width="260" height="26" as="geometry" />
        </mxCell>
        <mxCell id="mxx-9HUhmIcKTZJnWZQF-17" value="+ show(): void" style="text;strokeColor=none;fillColor=none;align=left;verticalAlign=top;spacingLeft=4;spacingRight=4;overflow=hidden;rotatable=0;points=[[0,0.5],[1,0.5]];portConstraint=eastwest;whiteSpace=wrap;html=1;" parent="mxx-9HUhmIcKTZJnWZQF-1" vertex="1">
          <mxGeometry y="112" width="260" height="26" as="geometry" />
        </mxCell>
        <mxCell id="mxx-9HUhmIcKTZJnWZQF-13" value="" style="endArrow=block;html=1;rounded=0;endFill=0;" parent="1" source="MwzLFh-qSTPDTa6_5iHh-27" target="mxx-9HUhmIcKTZJnWZQF-1" edge="1">
          <mxGeometry width="50" height="50" relative="1" as="geometry">
            <mxPoint x="490" y="527" as="sourcePoint" />
            <mxPoint x="310" y="157" as="targetPoint" />
          </mxGeometry>
        </mxCell>
        <mxCell id="mxx-9HUhmIcKTZJnWZQF-14" value="opens" style="text;html=1;align=center;verticalAlign=middle;resizable=0;points=[];autosize=1;strokeColor=none;fillColor=none;" parent="1" vertex="1">
          <mxGeometry x="303" y="117" width="60" height="30" as="geometry" />
        </mxCell>
        <mxCell id="mxx-9HUhmIcKTZJnWZQF-15" value="" style="endArrow=block;html=1;rounded=0;endFill=0;" parent="1" source="mxx-9HUhmIcKTZJnWZQF-1" target="MwzLFh-qSTPDTa6_5iHh-7" edge="1">
          <mxGeometry width="50" height="50" relative="1" as="geometry">
            <mxPoint x="415" y="156" as="sourcePoint" />
            <mxPoint x="270" y="156" as="targetPoint" />
          </mxGeometry>
        </mxCell>
        <mxCell id="mxx-9HUhmIcKTZJnWZQF-16" value="opens" style="text;html=1;align=center;verticalAlign=middle;resizable=0;points=[];autosize=1;strokeColor=none;fillColor=none;" parent="1" vertex="1">
          <mxGeometry x="120" y="248" width="60" height="30" as="geometry" />
        </mxCell>
        <mxCell id="jwQLwETKuIdSPSXauqky-6" value="&lt;b&gt;PasswordFileManager&lt;/b&gt;" style="swimlane;fontStyle=0;childLayout=stackLayout;horizontal=1;startSize=26;fillColor=none;horizontalStack=0;resizeParent=1;resizeParentMax=0;resizeLast=0;collapsible=1;marginBottom=0;whiteSpace=wrap;html=1;swimlaneLine=1;" vertex="1" parent="1">
          <mxGeometry x="296" y="557" width="370" height="318" as="geometry" />
        </mxCell>
        <mxCell id="jwQLwETKuIdSPSXauqky-7" value="- phrasesFile : String" style="text;strokeColor=none;fillColor=none;align=left;verticalAlign=top;spacingLeft=4;spacingRight=4;overflow=hidden;rotatable=0;points=[[0,0.5],[1,0.5]];portConstraint=eastwest;whiteSpace=wrap;html=1;fontFamily=Helvetica;fontSize=12;fontColor=default;" vertex="1" parent="jwQLwETKuIdSPSXauqky-6">
          <mxGeometry y="26" width="370" height="26" as="geometry" />
        </mxCell>
        <mxCell id="jwQLwETKuIdSPSXauqky-8" value="- passwordLogFile : String" style="text;strokeColor=none;fillColor=none;align=left;verticalAlign=top;spacingLeft=4;spacingRight=4;overflow=hidden;rotatable=0;points=[[0,0.5],[1,0.5]];portConstraint=eastwest;whiteSpace=wrap;html=1;backgroundOutline=0;fontFamily=Helvetica;fontSize=12;fontColor=default;" vertex="1" parent="jwQLwETKuIdSPSXauqky-6">
          <mxGeometry y="52" width="370" height="26" as="geometry" />
        </mxCell>
        <mxCell id="jwQLwETKuIdSPSXauqky-9" value="- logWriter : PrintWriter" style="text;strokeColor=none;fillColor=none;align=left;verticalAlign=top;spacingLeft=4;spacingRight=4;overflow=hidden;rotatable=0;points=[[0,0.5],[1,0.5]];portConstraint=eastwest;whiteSpace=wrap;html=1;backgroundOutline=0;fontFamily=Helvetica;fontSize=12;fontColor=default;" vertex="1" parent="jwQLwETKuIdSPSXauqky-6">
          <mxGeometry y="78" width="370" height="26" as="geometry" />
        </mxCell>
        <mxCell id="jwQLwETKuIdSPSXauqky-12" value="" style="line;strokeWidth=1;fillColor=none;align=left;verticalAlign=middle;spacingTop=-1;spacingLeft=3;spacingRight=3;rotatable=0;labelPosition=right;points=[];portConstraint=eastwest;strokeColor=inherit;" vertex="1" parent="jwQLwETKuIdSPSXauqky-6">
          <mxGeometry y="104" width="370" height="8" as="geometry" />
        </mxCell>
        <mxCell id="jwQLwETKuIdSPSXauqky-13" value="+ PasswordFileManager(phrasesFile, logFile)│" style="text;strokeColor=none;fillColor=none;align=left;verticalAlign=top;spacingLeft=4;spacingRight=4;overflow=hidden;rotatable=0;points=[[0,0.5],[1,0.5]];portConstraint=eastwest;whiteSpace=wrap;html=1;" vertex="1" parent="jwQLwETKuIdSPSXauqky-6">
          <mxGeometry y="112" width="370" height="24" as="geometry" />
        </mxCell>
        <mxCell id="jwQLwETKuIdSPSXauqky-14" value="+ loadPhrases() : List&amp;lt;String&amp;gt;&amp;nbsp;" style="text;strokeColor=none;fillColor=none;align=left;verticalAlign=top;spacingLeft=4;spacingRight=4;overflow=hidden;rotatable=0;points=[[0,0.5],[1,0.5]];portConstraint=eastwest;whiteSpace=wrap;html=1;" vertex="1" parent="jwQLwETKuIdSPSXauqky-6">
          <mxGeometry y="136" width="370" height="26" as="geometry" />
        </mxCell>
        <mxCell id="jwQLwETKuIdSPSXauqky-15" value="&lt;div&gt;+ savePhrases(phrases : List&amp;lt;String&amp;gt;,&amp;nbsp;&lt;span style=&quot;background-color: transparent; color: light-dark(rgb(0, 0, 0), rgb(255, 255, 255));&quot;&gt;&amp;nbsp; filename : String) : void&amp;nbsp;&lt;/span&gt;&lt;/div&gt;" style="text;strokeColor=none;fillColor=none;align=left;verticalAlign=top;spacingLeft=4;spacingRight=4;overflow=hidden;rotatable=0;points=[[0,0.5],[1,0.5]];portConstraint=eastwest;whiteSpace=wrap;html=1;" vertex="1" parent="jwQLwETKuIdSPSXauqky-6">
          <mxGeometry y="162" width="370" height="26" as="geometry" />
        </mxCell>
        <mxCell id="jwQLwETKuIdSPSXauqky-16" value="&lt;div&gt;+ saveCommonWords(words : List&amp;lt;String&amp;gt;,&amp;nbsp;&lt;span style=&quot;background-color: transparent; color: light-dark(rgb(0, 0, 0), rgb(255, 255, 255));&quot;&gt;filename : String) : void&lt;/span&gt;&lt;/div&gt;" style="text;strokeColor=none;fillColor=none;align=left;verticalAlign=top;spacingLeft=4;spacingRight=4;overflow=hidden;rotatable=0;points=[[0,0.5],[1,0.5]];portConstraint=eastwest;whiteSpace=wrap;html=1;" vertex="1" parent="jwQLwETKuIdSPSXauqky-6">
          <mxGeometry y="188" width="370" height="26" as="geometry" />
        </mxCell>
        <mxCell id="jwQLwETKuIdSPSXauqky-17" value="+ addPhrase(phrase : String) : boolean" style="text;strokeColor=none;fillColor=none;align=left;verticalAlign=top;spacingLeft=4;spacingRight=4;overflow=hidden;rotatable=0;points=[[0,0.5],[1,0.5]];portConstraint=eastwest;whiteSpace=wrap;html=1;" vertex="1" parent="jwQLwETKuIdSPSXauqky-6">
          <mxGeometry y="214" width="370" height="26" as="geometry" />
        </mxCell>
        <mxCell id="jwQLwETKuIdSPSXauqky-18" value="+ initPasswordLog() : void&amp;nbsp;" style="text;strokeColor=none;fillColor=none;align=left;verticalAlign=top;spacingLeft=4;spacingRight=4;overflow=hidden;rotatable=0;points=[[0,0.5],[1,0.5]];portConstraint=eastwest;whiteSpace=wrap;html=1;" vertex="1" parent="jwQLwETKuIdSPSXauqky-6">
          <mxGeometry y="240" width="370" height="26" as="geometry" />
        </mxCell>
        <mxCell id="jwQLwETKuIdSPSXauqky-19" value="&lt;div&gt;+ savePassword(password : String,&amp;nbsp;&lt;span style=&quot;background-color: transparent; color: light-dark(rgb(0, 0, 0), rgb(255, 255, 255));&quot;&gt;strength : String) : void&amp;nbsp;&amp;nbsp;&lt;/span&gt;&lt;/div&gt;" style="text;strokeColor=none;fillColor=none;align=left;verticalAlign=top;spacingLeft=4;spacingRight=4;overflow=hidden;rotatable=0;points=[[0,0.5],[1,0.5]];portConstraint=eastwest;whiteSpace=wrap;html=1;" vertex="1" parent="jwQLwETKuIdSPSXauqky-6">
          <mxGeometry y="266" width="370" height="26" as="geometry" />
        </mxCell>
        <mxCell id="jwQLwETKuIdSPSXauqky-20" value="│ + closeLog() : void" style="text;strokeColor=none;fillColor=none;align=left;verticalAlign=top;spacingLeft=4;spacingRight=4;overflow=hidden;rotatable=0;points=[[0,0.5],[1,0.5]];portConstraint=eastwest;whiteSpace=wrap;html=1;" vertex="1" parent="jwQLwETKuIdSPSXauqky-6">
          <mxGeometry y="292" width="370" height="26" as="geometry" />
        </mxCell>
        <mxCell id="jwQLwETKuIdSPSXauqky-22" value="" style="endArrow=block;html=1;rounded=0;exitX=0.395;exitY=1.068;exitDx=0;exitDy=0;exitPerimeter=0;entryX=0.993;entryY=0.032;entryDx=0;entryDy=0;entryPerimeter=0;endFill=0;" edge="1" parent="1" source="MwzLFh-qSTPDTa6_5iHh-70" target="jwQLwETKuIdSPSXauqky-6">
          <mxGeometry width="50" height="50" relative="1" as="geometry">
            <mxPoint x="740" y="807" as="sourcePoint" />
            <mxPoint x="750" y="587" as="targetPoint" />
            <Array as="points">
              <mxPoint x="795" y="567" />
            </Array>
          </mxGeometry>
        </mxCell>
        <mxCell id="jwQLwETKuIdSPSXauqky-23" value="" style="endArrow=block;html=1;rounded=0;endFill=0;" edge="1" parent="1" target="jwQLwETKuIdSPSXauqky-8">
          <mxGeometry width="50" height="50" relative="1" as="geometry">
            <mxPoint x="172" y="587" as="sourcePoint" />
            <mxPoint x="190" y="729" as="targetPoint" />
            <Array as="points">
              <mxPoint x="172" y="622" />
            </Array>
          </mxGeometry>
        </mxCell>
        <mxCell id="jwQLwETKuIdSPSXauqky-24" value="&lt;b&gt;AboutScreen&lt;/b&gt;" style="swimlane;fontStyle=0;childLayout=stackLayout;horizontal=1;startSize=26;fillColor=none;horizontalStack=0;resizeParent=1;resizeParentMax=0;resizeLast=0;collapsible=1;marginBottom=0;whiteSpace=wrap;html=1;labelPadding=8;" vertex="1" parent="1">
          <mxGeometry x="810" y="87" width="140" height="52" as="geometry" />
        </mxCell>
        <mxCell id="jwQLwETKuIdSPSXauqky-25" value="+ show() : void" style="text;strokeColor=none;fillColor=none;align=left;verticalAlign=top;spacingLeft=4;spacingRight=4;overflow=hidden;rotatable=0;points=[[0,0.5],[1,0.5]];portConstraint=eastwest;whiteSpace=wrap;html=1;" vertex="1" parent="jwQLwETKuIdSPSXauqky-24">
          <mxGeometry y="26" width="140" height="26" as="geometry" />
        </mxCell>
        <mxCell id="jwQLwETKuIdSPSXauqky-27" value="" style="endArrow=block;html=1;rounded=0;endFill=0;entryX=0;entryY=0.25;entryDx=0;entryDy=0;exitX=1.008;exitY=0.16;exitDx=0;exitDy=0;exitPerimeter=0;" edge="1" parent="1" source="MwzLFh-qSTPDTa6_5iHh-27" target="jwQLwETKuIdSPSXauqky-24">
          <mxGeometry width="50" height="50" relative="1" as="geometry">
            <mxPoint x="640" y="98" as="sourcePoint" />
            <mxPoint x="800" y="98" as="targetPoint" />
          </mxGeometry>
        </mxCell>
        <mxCell id="jwQLwETKuIdSPSXauqky-28" value="opens" style="text;html=1;align=center;verticalAlign=middle;resizable=0;points=[];autosize=1;strokeColor=none;fillColor=none;" vertex="1" parent="1">
          <mxGeometry x="690" y="75" width="60" height="30" as="geometry" />
        </mxCell>
        <mxCell id="jwQLwETKuIdSPSXauqky-29" value="&lt;b&gt;SystemInfo&lt;/b&gt;" style="swimlane;fontStyle=0;childLayout=stackLayout;horizontal=1;startSize=26;fillColor=none;horizontalStack=0;resizeParent=1;resizeParentMax=0;resizeLast=0;collapsible=1;marginBottom=0;whiteSpace=wrap;html=1;labelPadding=8;" vertex="1" parent="1">
          <mxGeometry x="810" y="177" width="140" height="78" as="geometry" />
        </mxCell>
        <mxCell id="jwQLwETKuIdSPSXauqky-30" value="+ javaVersion() : String" style="text;strokeColor=none;fillColor=none;align=left;verticalAlign=top;spacingLeft=4;spacingRight=4;overflow=hidden;rotatable=0;points=[[0,0.5],[1,0.5]];portConstraint=eastwest;whiteSpace=wrap;html=1;" vertex="1" parent="jwQLwETKuIdSPSXauqky-29">
          <mxGeometry y="26" width="140" height="26" as="geometry" />
        </mxCell>
        <mxCell id="jwQLwETKuIdSPSXauqky-33" value="+ javafxVersion() : String" style="text;strokeColor=none;fillColor=none;align=left;verticalAlign=top;spacingLeft=4;spacingRight=4;overflow=hidden;rotatable=0;points=[[0,0.5],[1,0.5]];portConstraint=eastwest;whiteSpace=wrap;html=1;" vertex="1" parent="jwQLwETKuIdSPSXauqky-29">
          <mxGeometry y="52" width="140" height="26" as="geometry" />
        </mxCell>
        <mxCell id="jwQLwETKuIdSPSXauqky-31" value="" style="endArrow=block;html=1;rounded=0;endFill=0;" edge="1" parent="1" source="jwQLwETKuIdSPSXauqky-24" target="jwQLwETKuIdSPSXauqky-29">
          <mxGeometry width="50" height="50" relative="1" as="geometry">
            <mxPoint x="880" y="137" as="sourcePoint" />
            <mxPoint x="820" y="110" as="targetPoint" />
          </mxGeometry>
        </mxCell>
        <mxCell id="jwQLwETKuIdSPSXauqky-32" value="uses" style="text;html=1;align=center;verticalAlign=middle;resizable=0;points=[];autosize=1;strokeColor=none;fillColor=none;" vertex="1" parent="1">
          <mxGeometry x="880" y="139" width="50" height="30" as="geometry" />
        </mxCell>
        <mxCell id="jwQLwETKuIdSPSXauqky-34" value="&lt;b&gt;&amp;lt;&amp;lt;test class&amp;gt;&amp;gt;&lt;br&gt;PasswordValidatorTest&lt;/b&gt;" style="swimlane;fontStyle=0;childLayout=stackLayout;horizontal=1;startSize=26;fillColor=none;horizontalStack=0;resizeParent=1;resizeParentMax=0;resizeLast=0;collapsible=1;marginBottom=0;whiteSpace=wrap;html=1;" vertex="1" parent="1">
          <mxGeometry x="780" y="1005" width="170" height="52" as="geometry" />
        </mxCell>
        <mxCell id="jwQLwETKuIdSPSXauqky-35" value="+ main(args : String[]) : void" style="text;strokeColor=none;fillColor=none;align=left;verticalAlign=top;spacingLeft=4;spacingRight=4;overflow=hidden;rotatable=0;points=[[0,0.5],[1,0.5]];portConstraint=eastwest;whiteSpace=wrap;html=1;" vertex="1" parent="jwQLwETKuIdSPSXauqky-34">
          <mxGeometry y="26" width="170" height="26" as="geometry" />
        </mxCell>
        <mxCell id="jwQLwETKuIdSPSXauqky-37" value="uses" style="text;html=1;align=center;verticalAlign=middle;resizable=0;points=[];autosize=1;strokeColor=none;fillColor=none;" vertex="1" parent="1">
          <mxGeometry x="466" y="1067" width="50" height="30" as="geometry" />
        </mxCell>
        <mxCell id="jwQLwETKuIdSPSXauqky-38" value="" style="endArrow=block;dashed=1;html=1;rounded=0;exitX=0;exitY=0.25;exitDx=0;exitDy=0;endFill=0;" edge="1" parent="1">
          <mxGeometry width="50" height="50" relative="1" as="geometry">
            <mxPoint x="780" y="1030" as="sourcePoint" />
            <mxPoint x="550" y="1030" as="targetPoint" />
          </mxGeometry>
        </mxCell>
        <mxCell id="jwQLwETKuIdSPSXauqky-40" value="Tests" style="text;html=1;align=center;verticalAlign=middle;resizable=0;points=[];autosize=1;strokeColor=none;fillColor=none;" vertex="1" parent="1">
          <mxGeometry x="670" y="1003" width="50" height="30" as="geometry" />
        </mxCell>
        <mxCell id="jwQLwETKuIdSPSXauqky-41" value="&lt;b&gt;&amp;lt;&amp;lt;console app&amp;gt;&amp;gt;&lt;/b&gt;&lt;br&gt;&lt;b&gt;PasswordFactoryConsole&amp;nbsp;&lt;/b&gt;" style="swimlane;fontStyle=0;childLayout=stackLayout;horizontal=1;startSize=26;fillColor=none;horizontalStack=0;resizeParent=1;resizeParentMax=0;resizeLast=0;collapsible=1;marginBottom=0;whiteSpace=wrap;html=1;" vertex="1" parent="1">
          <mxGeometry x="590" y="907" width="170" height="52" as="geometry" />
        </mxCell>
        <mxCell id="jwQLwETKuIdSPSXauqky-42" value="+ main(args : String[]) : void" style="text;strokeColor=none;fillColor=none;align=left;verticalAlign=top;spacingLeft=4;spacingRight=4;overflow=hidden;rotatable=0;points=[[0,0.5],[1,0.5]];portConstraint=eastwest;whiteSpace=wrap;html=1;" vertex="1" parent="jwQLwETKuIdSPSXauqky-41">
          <mxGeometry y="26" width="170" height="26" as="geometry" />
        </mxCell>
        <mxCell id="jwQLwETKuIdSPSXauqky-44" value="" style="endArrow=block;html=1;rounded=0;exitX=0;exitY=0.25;exitDx=0;exitDy=0;endFill=0;" edge="1" parent="1" source="jwQLwETKuIdSPSXauqky-41">
          <mxGeometry width="50" height="50" relative="1" as="geometry">
            <mxPoint x="495" y="947" as="sourcePoint" />
            <mxPoint x="529" y="877" as="targetPoint" />
            <Array as="points">
              <mxPoint x="530" y="920" />
            </Array>
          </mxGeometry>
        </mxCell>
        <mxCell id="jwQLwETKuIdSPSXauqky-45" value="" style="endArrow=block;html=1;rounded=0;endFill=0;entryX=1;entryY=0.25;entryDx=0;entryDy=0;" edge="1" parent="1" target="MwzLFh-qSTPDTa6_5iHh-38">
          <mxGeometry width="50" height="50" relative="1" as="geometry">
            <mxPoint x="650" y="957" as="sourcePoint" />
            <mxPoint x="570" y="997" as="targetPoint" />
            <Array as="points">
              <mxPoint x="650" y="987" />
              <mxPoint x="650" y="998" />
            </Array>
          </mxGeometry>
        </mxCell>
        <mxCell id="jwQLwETKuIdSPSXauqky-46" value="uses" style="text;html=1;align=center;verticalAlign=middle;resizable=0;points=[];autosize=1;strokeColor=none;fillColor=none;" vertex="1" parent="1">
          <mxGeometry x="525" y="885" width="50" height="30" as="geometry" />
        </mxCell>
        <mxCell id="jwQLwETKuIdSPSXauqky-47" value="uses" style="text;html=1;align=center;verticalAlign=middle;resizable=0;points=[];autosize=1;strokeColor=none;fillColor=none;" vertex="1" parent="1">
          <mxGeometry x="565" y="975" width="50" height="30" as="geometry" />
        </mxCell>
        <mxCell id="jwQLwETKuIdSPSXauqky-48" value="&lt;font style=&quot;font-size: 25px;&quot;&gt;Password Factory UML&lt;/font&gt;" style="text;html=1;align=center;verticalAlign=middle;resizable=0;points=[];autosize=1;strokeColor=none;fillColor=none;" vertex="1" parent="1">
          <mxGeometry x="370" y="-1" width="280" height="40" as="geometry" />
        </mxCell>
        <mxCell id="jwQLwETKuIdSPSXauqky-49" value="Last Update: 03/16/2025" style="text;html=1;align=center;verticalAlign=middle;resizable=0;points=[];autosize=1;strokeColor=none;fillColor=none;" vertex="1" parent="1">
          <mxGeometry x="436" y="35" width="150" height="30" as="geometry" />
        </mxCell>
        <mxCell id="jwQLwETKuIdSPSXauqky-50" value="Jordan Bassett&lt;div&gt;Lizbeth Garcia-Lopez&lt;br&gt;&amp;nbsp; &amp;nbsp; &amp;nbsp;CS236 - Advanced OOP&lt;/div&gt;" style="text;html=1;align=left;verticalAlign=middle;resizable=0;points=[];autosize=1;strokeColor=none;fillColor=none;" vertex="1" parent="1">
          <mxGeometry x="780" y="-3" width="170" height="60" as="geometry" />
        </mxCell>
      </root>
    </mxGraphModel>
  </diagram>
</mxfile>
